<?xml version="1.0" encoding="UTF-8"?>
<svg version="1.1" xmlns="http://www.w3.org/2000/svg" width="300" height="368">
<path d="M0 0 C0.93972656 0.16097168 1.87945312 0.32194336 2.84765625 0.48779297 C20.49367279 3.64623575 37.40075349 9.28428861 54 16 C53.97679687 15.32453125 53.95359375 14.6490625 53.9296875 13.953125 C53.91164062 13.06109375 53.89359375 12.1690625 53.875 11.25 C53.85179687 10.36828125 53.82859375 9.4865625 53.8046875 8.578125 C54.01129275 5.85093574 54.52694159 4.28684592 56 2 C60.22763409 -0.11381704 65.792588 0.7706097 70.4375 0.75 C71.59572266 0.729375 72.75394531 0.70875 73.94726562 0.6875 C75.61112305 0.67976563 75.61112305 0.67976563 77.30859375 0.671875 C78.83697876 0.65785645 78.83697876 0.65785645 80.39624023 0.64355469 C83.45885836 1.06281605 84.11832793 1.62256873 86 4 C86.29639226 7.01193227 86.40960588 9.81704887 86.38818359 12.83007812 C86.39606903 14.18413002 86.39606903 14.18413002 86.40411377 15.5655365 C86.41733515 18.55428284 86.40856807 21.54249809 86.3984375 24.53125 C86.40045762 26.60485944 86.40336854 28.67846819 86.40713501 30.7520752 C86.41156126 35.09992226 86.40511754 39.44758455 86.39111328 43.79541016 C86.37402132 49.37440956 86.38386088 54.95297602 86.40183067 60.53195953 C86.41266032 64.8144254 86.40922592 69.09678827 86.4014473 73.3792572 C86.39944302 75.43660025 86.40191249 77.49395259 86.40888596 79.55128479 C86.41648689 82.42441657 86.40491522 85.29684278 86.38818359 88.16992188 C86.39425629 89.0240416 86.40032898 89.87816132 86.40658569 90.75816345 C86.34378022 96.56621152 86.34378022 96.56621152 84.63793373 98.71868134 C82.23463813 100.59872535 80.36171095 100.37216608 77.34375 100.36328125 C75.68666016 100.36231445 75.68666016 100.36231445 73.99609375 100.36132812 C72.26552734 100.3371582 72.26552734 100.3371582 70.5 100.3125 C69.34628906 100.31572266 68.19257813 100.31894531 67.00390625 100.32226562 C58.4005776 100.26705173 58.4005776 100.26705173 55 98 C54.938125 96.72125 54.87625 95.4425 54.8125 94.125 C54.66593853 91.95509924 54.66593853 91.95509924 54 90 C47.22141622 85.83946703 39.51591663 83.55740618 32 81.0625 C31.34071503 80.84311768 30.68143005 80.62373535 30.00216675 80.39770508 C-17.42589365 64.73100564 -66.42077383 65.73393181 -113.53027344 82.15332031 C-115.87553597 82.95733084 -118.23295854 83.69794885 -120.6015625 84.4296875 C-127.60331736 86.5214563 -127.60331736 86.5214563 -132.5078125 91.5625 C-133.37024023 94.26153436 -133.37024023 94.26153436 -133.67578125 96.92578125 C-133.78277344 97.61027344 -133.88976562 98.29476562 -134 99 C-138.22763409 101.11381704 -143.792588 100.2293903 -148.4375 100.25 C-150.17483398 100.2809375 -150.17483398 100.2809375 -151.94726562 100.3125 C-153.61112305 100.32023437 -153.61112305 100.32023437 -155.30859375 100.328125 C-156.83697876 100.34214355 -156.83697876 100.34214355 -158.39624023 100.35644531 C-161.46 99.93702766 -162.12202269 99.38326091 -164 97 C-164.28085591 93.91141654 -164.3785318 91.0267888 -164.34057617 87.9387207 C-164.34101425 87.01169342 -164.34145233 86.08466614 -164.34190369 85.12954712 C-164.33981148 82.06141188 -164.3164599 78.99382118 -164.29296875 75.92578125 C-164.28737434 73.8001485 -164.28310351 71.67451189 -164.28010559 69.5488739 C-164.26864468 63.9510126 -164.23916665 58.35338437 -164.20599365 52.75561523 C-164.17531969 47.04479119 -164.16160597 41.33392953 -164.14648438 35.62304688 C-164.11429826 24.41526211 -164.06308675 13.20765043 -164 2 C-158.41936772 0.82934405 -153.06508254 0.77816873 -147.375 0.75 C-146.32570313 0.729375 -145.27640625 0.70875 -144.1953125 0.6875 C-143.18984375 0.68234375 -142.184375 0.6771875 -141.1484375 0.671875 C-140.23239746 0.6625293 -139.31635742 0.65318359 -138.37255859 0.64355469 C-135.54859457 1.06781765 -134.72211286 1.77297801 -133 4 C-131.73762269 6.52475462 -131.90143596 8.31200466 -131.9375 11.125 C-131.94652344 12.03507812 -131.95554688 12.94515625 -131.96484375 13.8828125 C-131.97644531 14.58148438 -131.98804688 15.28015625 -132 16 C-131.34217529 15.75354736 -130.68435059 15.50709473 -130.0065918 15.25317383 C-87.71078125 -0.50798351 -45.00599123 -7.72868915 0 0 Z M-65.75 10 C-68.1425 10.33 -70.535 10.66 -73 11 C-73 20.24 -73 29.48 -73 39 C-70.793125 38.855625 -68.58625 38.71125 -66.3125 38.5625 C-65.07113281 38.48128906 -63.82976562 38.40007812 -62.55078125 38.31640625 C-56.69821658 37.90948974 -50.8494132 37.44995486 -45 37 C-45 27.76 -45 18.52 -45 9 C-55.4716171 8.9954981 -55.4716171 8.9954981 -65.75 10 Z M-33 9 C-33 18.24 -33 27.48 -33 37 C-29.49375 37.33 -25.9875 37.66 -22.375 38 C-21.28106934 38.10441406 -20.18713867 38.20882812 -19.06005859 38.31640625 C-18.18172363 38.39761719 -17.30338867 38.47882813 -16.3984375 38.5625 C-15.50817871 38.64628906 -14.61791992 38.73007813 -13.70068359 38.81640625 C-10.80648996 39.0131549 -7.90087346 39 -5 39 C-5 29.76 -5 20.52 -5 11 C-7.3925 10.67 -9.785 10.34 -12.25 10 C-12.97606445 9.89558594 -13.70212891 9.79117188 -14.45019531 9.68359375 C-20.78567157 8.85335973 -26.42414549 9 -33 9 Z M-152 13 C-152 37.75 -152 62.5 -152 88 C-149.36 88 -146.72 88 -144 88 C-144 63.25 -144 38.5 -144 13 C-146.64 13 -149.28 13 -152 13 Z M66 13 C66 37.75 66 62.5 66 88 C68.64 88 71.28 88 74 88 C74 63.25 74 38.5 74 13 C71.36 13 68.72 13 66 13 Z M7 14 C7 23.24 7 32.48 7 42 C11.24875 43.155 15.4975 44.31 19.875 45.5 C21.88376221 46.04817383 21.88376221 46.04817383 23.93310547 46.60742188 C24.98385254 46.89166016 26.03459961 47.17589844 27.1171875 47.46875 C28.19597168 47.76201172 29.27475586 48.05527344 30.38623047 48.35742188 C32.87509533 49.07957828 32.87509533 49.07957828 35 49 C35 40.09 35 31.18 35 22 C28.80824117 19.52329647 23.39131666 17.39588421 17.0625 15.75 C15.79535156 15.41484375 14.52820313 15.0796875 13.22265625 14.734375 C10.06337609 13.88890852 10.06337609 13.88890852 7 14 Z M-92.74609375 15.2421875 C-93.66583984 15.50386719 -94.58558594 15.76554687 -95.53320312 16.03515625 C-96.49162109 16.31230469 -97.45003906 16.58945313 -98.4375 16.875 C-99.86932617 17.27912109 -99.86932617 17.27912109 -101.33007812 17.69140625 C-102.25111328 17.95566406 -103.17214844 18.21992188 -104.12109375 18.4921875 C-104.9608374 18.73308105 -105.80058105 18.97397461 -106.66577148 19.22216797 C-109.34035185 20.05224714 -109.34035185 20.05224714 -113 22 C-113 30.91 -113 39.82 -113 49 C-110.6075 48.401875 -108.215 47.80375 -105.75 47.1875 C-95.375 44.59375 -95.375 44.59375 -85 42 C-85 32.76 -85 23.52 -85 14 C-87.92872552 14 -89.94903766 14.4462532 -92.74609375 15.2421875 Z M46 26 C46 34.91 46 43.82 46 53 C51.18010841 56.1490712 51.18010841 56.1490712 54 56 C54 47.09 54 38.18 54 29 C51.36 28.01 48.72 27.02 46 26 Z M-133 30 C-133 38.58 -133 47.16 -133 56 C-127.25077841 55.4635601 -127.25077841 55.4635601 -124 53 C-123.58235618 50.18725248 -123.58235618 50.18725248 -123.70703125 46.8984375 C-123.71669922 45.68671875 -123.72636719 44.475 -123.73632812 43.2265625 C-123.76146484 41.95554687 -123.78660156 40.68453125 -123.8125 39.375 C-123.82603516 38.09625 -123.83957031 36.8175 -123.85351562 35.5 C-123.88896804 32.33291718 -123.93838559 29.16666459 -124 26 C-127.2829526 26 -130.06363793 28.53181896 -133 30 Z M-133 70 C-133.16681109 73.08347826 -133.16681109 73.08347826 -133 76 C-128.12057304 75.24403244 -123.67761118 73.49808144 -119.0625 71.8125 C-102.42553842 65.88717506 -85.54156415 61.23681621 -68 59 C-67.30874023 58.9057373 -66.61748047 58.81147461 -65.90527344 58.71435547 C-43.92771531 56.08363705 -19.64778142 56.5265539 2 61 C2.97614258 61.19867676 3.95228516 61.39735352 4.95800781 61.60205078 C19.66345649 64.68202787 33.75867752 69.00752404 47.83129883 74.24731445 C49.8722157 74.95565023 51.89661908 75.51253272 54 76 C54 73.69 54 71.38 54 69 C11.0228433 46.03245067 -93.53327753 30.53327753 -133 70 Z " fill="#171717" transform="translate(189,115)"/>
</svg>
